<svg xmlns="http://www.w3.org/2000/svg" width="512" height="416" viewBox="0 0 512 416">
  <path id="list-ul-solid" d="M48,48A48,48,0,1,0,96,96,48,48,0,0,0,48,48Zm0,160a48,48,0,1,0,48,48,48,48,0,0,0-48-48Zm0,160a48,48,0,1,0,48,48,48,48,0,0,0-48-48Zm448,16H176a16,16,0,0,0-16,16v32a16,16,0,0,0,16,16H496a16,16,0,0,0,16-16V400A16,16,0,0,0,496,384Zm0-320H176a16,16,0,0,0-16,16v32a16,16,0,0,0,16,16H496a16,16,0,0,0,16-16V80A16,16,0,0,0,496,64Zm0,160H176a16,16,0,0,0-16,16v32a16,16,0,0,0,16,16H496a16,16,0,0,0,16-16V240A16,16,0,0,0,496,224Z" transform="translate(0 -48)" fill="#fff"/>
</svg>
